HIERARCHY
ROOT hip
{
OFFSET 0.07 106.87 3.58
CHANNELS 6 Xposition Yposition Zposition Zrotation Xrotation Yrotation
JOINT abdomen
{
OFFSET 0.37 7.23 0
CHANNELS 6 Xposition Yposition Zposition Zrotation Xrotation Yrotation
JOINT chest
{
OFFSET -0 16.55 -0
CHANNELS 6 Xposition Yposition Zposition Zrotation Xrotation Yrotation
JOINT neck
{
OFFSET 0 34.21 -0
CHANNELS 6 Xposition Yposition Zposition Zrotation Xrotation Yrotation
JOINT head
{
OFFSET 0 6.29 0
CHANNELS 6 Xposition Yposition Zposition Zrotation Xrotation Yrotation
End Site
{
OFFSET 0 0 0
}
}
}
JOINT lCollar
{
OFFSET 4.06 26.61 -1.12
CHANNELS 6 Xposition Yposition Zposition Zrotation Xrotation Yrotation
JOINT lShldr
{
OFFSET 14.17 0 0
CHANNELS 6 Xposition Yposition Zposition Zrotation Xrotation Yrotation
JOINT lForeArm
{
OFFSET 26.12 0 0
CHANNELS 6 Xposition Yposition Zposition Zrotation Xrotation Yrotation
JOINT lHand
{
OFFSET 27.71 0 0
CHANNELS 6 Xposition Yposition Zposition Zrotation Xrotation Yrotation
JOINT lThumb1
{
OFFSET 2.29 -0.46 1.83
CHANNELS 6 Xposition Yposition Zposition Zrotation Xrotation Yrotation
JOINT lThumb2
{
OFFSET 5.29 0 0
CHANNELS 6 Xposition Yposition Zposition Zrotation Xrotation Yrotation
JOINT lThumb3
{
OFFSET 3.01 0 0
CHANNELS 6 Xposition Yposition Zposition Zrotation Xrotation Yrotation
End Site
{
OFFSET 0 0 0
}
}
}
}
JOINT lIndex1
{
OFFSET 9.37 0.29 2.59
CHANNELS 6 Xposition Yposition Zposition Zrotation Xrotation Yrotation
JOINT lIndex2
{
OFFSET 4.34 0 0
CHANNELS 6 Xposition Yposition Zposition Zrotation Xrotation Yrotation
JOINT lIndex3
{
OFFSET 2.16 0 0
CHANNELS 6 Xposition Yposition Zposition Zrotation Xrotation Yrotation
End Site
{
OFFSET 0 0 0
}
}
}
}
JOINT lMid1
{
OFFSET 9.47 0.83 0.29
CHANNELS 6 Xposition Yposition Zposition Zrotation Xrotation Yrotation
JOINT lMid2
{
OFFSET 4.77 0 0
CHANNELS 6 Xposition Yposition Zposition Zrotation Xrotation Yrotation
JOINT lMid3
{
OFFSET 2.87 0 0
CHANNELS 6 Xposition Yposition Zposition Zrotation Xrotation Yrotation
End Site
{
OFFSET 0 0 0
}
}
}
}
JOINT lRing1
{
OFFSET 8.65 1.01 -1.70
CHANNELS 6 Xposition Yposition Zposition Zrotation Xrotation Yrotation
JOINT lRing2
{
OFFSET 4.54 0 0
CHANNELS 6 Xposition Yposition Zposition Zrotation Xrotation Yrotation
JOINT lRing3
{
OFFSET 2.50 0 0
CHANNELS 6 Xposition Yposition Zposition Zrotation Xrotation Yrotation
End Site
{
OFFSET 0 0 0
}
}
}
}
JOINT lPinky1
{
OFFSET 7.69 0.66 -3.90
CHANNELS 6 Xposition Yposition Zposition Zrotation Xrotation Yrotation
JOINT lPinky2
{
OFFSET 3.21 0 0
CHANNELS 6 Xposition Yposition Zposition Zrotation Xrotation Yrotation
JOINT lPinky3
{
OFFSET 1.92 0 0
CHANNELS 6 Xposition Yposition Zposition Zrotation Xrotation Yrotation
End Site
{
OFFSET 0 0 0
}
}
}
}
}
}
}
}
JOINT rCollar
{
OFFSET -4.06 26.61 -1.12
CHANNELS 6 Xposition Yposition Zposition Zrotation Xrotation Yrotation
JOINT rShldr
{
OFFSET -14.17 0 0
CHANNELS 6 Xposition Yposition Zposition Zrotation Xrotation Yrotation
JOINT rForeArm
{
OFFSET -26.12 0 0
CHANNELS 6 Xposition Yposition Zposition Zrotation Xrotation Yrotation
JOINT rHand
{
OFFSET -27.71 0 0
CHANNELS 6 Xposition Yposition Zposition Zrotation Xrotation Yrotation
JOINT rThumb1
{
OFFSET -2.29 -0.46 1.83
CHANNELS 6 Xposition Yposition Zposition Zrotation Xrotation Yrotation
JOINT rThumb2
{
OFFSET -5.29 0 0
CHANNELS 6 Xposition Yposition Zposition Zrotation Xrotation Yrotation
JOINT rThumb3
{
OFFSET -3.01 0 0
CHANNELS 6 Xposition Yposition Zposition Zrotation Xrotation Yrotation
End Site
{
OFFSET 0 0 0
}
}
}
}
JOINT rIndex1
{
OFFSET -9.37 0.29 2.59
CHANNELS 6 Xposition Yposition Zposition Zrotation Xrotation Yrotation
JOINT rIndex2
{
OFFSET -4.34 0 0
CHANNELS 6 Xposition Yposition Zposition Zrotation Xrotation Yrotation
JOINT rIndex3
{
OFFSET -2.16 0 0
CHANNELS 6 Xposition Yposition Zposition Zrotation Xrotation Yrotation
End Site
{
OFFSET 0 0 0
}
}
}
}
JOINT rMid1
{
OFFSET -9.47 0.83 0.29
CHANNELS 6 Xposition Yposition Zposition Zrotation Xrotation Yrotation
JOINT rMid2
{
OFFSET -4.77 0 0
CHANNELS 6 Xposition Yposition Zposition Zrotation Xrotation Yrotation
JOINT rMid3
{
OFFSET -2.87 0 0
CHANNELS 6 Xposition Yposition Zposition Zrotation Xrotation Yrotation
End Site
{
OFFSET 0 0 0
}
}
}
}
JOINT rRing1
{
OFFSET -8.65 1.01 -1.70
CHANNELS 6 Xposition Yposition Zposition Zrotation Xrotation Yrotation
JOINT rRing2
{
OFFSET -4.54 0 0
CHANNELS 6 Xposition Yposition Zposition Zrotation Xrotation Yrotation
JOINT rRing3
{
OFFSET -2.50 0 0
CHANNELS 6 Xposition Yposition Zposition Zrotation Xrotation Yrotation
End Site
{
OFFSET 0 0 0
}
}
}
}
JOINT rPinky1
{
OFFSET -7.69 0.66 -3.90
CHANNELS 6 Xposition Yposition Zposition Zrotation Xrotation Yrotation
JOINT rPinky2
{
OFFSET -3.21 0 0
CHANNELS 6 Xposition Yposition Zposition Zrotation Xrotation Yrotation
JOINT rPinky3
{
OFFSET -1.92 0 0
CHANNELS 6 Xposition Yposition Zposition Zrotation Xrotation Yrotation
End Site
{
OFFSET 0 0 0
}
}
}
}
}
}
}
}
}
}
JOINT lThigh
{
OFFSET 8.73 -0 0
CHANNELS 6 Xposition Yposition Zposition Zrotation Xrotation Yrotation
JOINT lShin
{
OFFSET 0 -46.66 0
CHANNELS 6 Xposition Yposition Zposition Zrotation Xrotation Yrotation
JOINT lFoot
{
OFFSET 0 -40.14 0
CHANNELS 6 Xposition Yposition Zposition Zrotation Xrotation Yrotation
JOINT lToes
{
OFFSET 0 -8.88 14.22
CHANNELS 6 Xposition Yposition Zposition Zrotation Xrotation Yrotation
End Site
{
OFFSET 0 0 0
}
}
}
}
}
JOINT rThigh
{
OFFSET -8.73 0 -0
CHANNELS 6 Xposition Yposition Zposition Zrotation Xrotation Yrotation
JOINT rShin
{
OFFSET 0 -46.66 0
CHANNELS 6 Xposition Yposition Zposition Zrotation Xrotation Yrotation
JOINT rFoot
{
OFFSET 0 -40.14 0
CHANNELS 6 Xposition Yposition Zposition Zrotation Xrotation Yrotation
JOINT rToes
{
OFFSET 0 -8.88 14.22
CHANNELS 6 Xposition Yposition Zposition Zrotation Xrotation Yrotation
End Site
{
OFFSET 0 0 0
}
}
}
}
}
}
MOTION
Frames: 9
Frame Time: 0.03
0.07 106.87 3.58 3.14 -3.40 2.00 0.37 7.23 0 0.12 1.02 0.47 -0 16.55 -0 0.30 7.99 2.01 0 34.21 -0 0.02 0.58 0.02 0 6.29 0 0.76 -7.17 -5.39 4.06 26.61 -1.12 -14.49 -5.32 2.37 14.17 0 0 -59.91 52.43 19.04 26.12 0 0 0 0 -54.22 27.71 0 0 -44.36 -11.03 30.73 2.29 -0.46 1.83 57.19 34.31 -81.43 5.29 0 0 0 0 0 3.01 0 0 0 0 0 9.37 0.29 2.59 24.22 -1.62 -3.34 4.34 0 0 0 0 0 2.16 0 0 0 0 0 9.47 0.83 0.29 16.96 14.27 7.03 4.77 0 0 0 0 0 2.87 0 0 -0 0 0 8.65 1.01 -1.70 23.79 3.43 14.82 4.54 0 0 0 0 0 2.50 0 0 0 0 0 7.69 0.66 -3.90 21.17 -7.01 16.30 3.21 0 0 0 0 0 1.92 0 0 0 0 0 -4.06 26.61 -1.12 14.77 -5.33 -2.34 -14.17 0 0 51.45 -7.68 -1.10 -26.12 0 0 0 0 31.52 -27.71 0 0 25.05 50.75 -51.63 -2.29 -0.46 1.83 -57.19 34.31 81.43 -5.29 0 0 0 0 0 -3.01 0 0 0 0 0 -9.37 0.29 2.59 -24.22 -1.62 3.34 -4.34 0 0 0 0 0 -2.16 0 0 -0 0 0 -9.47 0.83 0.29 -16.96 14.27 -7.03 -4.77 0 0 0 0 0 -2.87 0 0 0 0 0 -8.65 1.01 -1.70 -23.79 3.43 -14.82 -4.54 0 0 0 0 0 -2.50 0 0 -0 0 0 -7.69 0.66 -3.90 -21.17 -7.01 -16.30 -3.21 0 0 -0 0 0 -1.92 0 0 0 0 0 8.73 -0 0 4.07 5.03 8.82 0 -46.66 0 0 3.76 0 0 -40.14 0 -1.56 42.79 -0.09 0 -8.88 14.22 0 0 0 -8.73 0 -0 -9.55 8.01 9.15 0 -46.66 0 0 4.03 0 0 -40.14 0 1.12 35.03 0.52 0 -8.88 14.22 0 0 0 
-0.12 106.84 3.58 3.04 -3.44 1.97 0.36 7.23 0 0.29 1.00 0.47 -0 16.55 -0 0.29 7.98 2.07 0 34.21 -0 0.01 0.58 0.01 0 6.29 0 0.80 -7.12 -5.40 4.06 26.61 -1.12 -14.53 -5.33 2.39 14.17 0 0 -59.92 52.74 19.04 26.12 0 0 0 0 -54.36 27.71 0 0 -43.98 -11.78 30.90 2.29 -0.46 1.83 57.19 34.31 -81.43 5.29 0 0 0 0 0 3.01 0 0 0 0 0 9.37 0.29 2.59 24.22 -1.62 -3.34 4.34 0 0 0 0 0 2.16 0 0 0 0 0 9.47 0.83 0.29 16.96 14.27 7.03 4.77 0 0 0 0 0 2.87 0 0 -0 0 0 8.65 1.01 -1.70 23.79 3.43 14.82 4.54 0 0 0 0 0 2.50 0 0 0 0 0 7.69 0.66 -3.90 21.17 -7.01 16.30 3.21 0 0 0 0 0 1.92 0 0 0 0 0 -4.06 26.61 -1.12 14.75 -5.34 -2.37 -14.17 0 0 51.37 -7.33 -1.12 -26.12 0 0 0 0 31.57 -27.71 0 0 24.19 50.39 -51.27 -2.29 -0.46 1.83 -57.19 34.31 81.43 -5.29 0 0 0 0 0 -3.01 0 0 0 0 0 -9.37 0.29 2.59 -24.22 -1.62 3.34 -4.34 0 0 0 0 0 -2.16 0 0 -0 0 0 -9.47 0.83 0.29 -16.96 14.27 -7.03 -4.77 0 0 0 0 0 -2.87 0 0 0 0 0 -8.65 1.01 -1.70 -23.79 3.43 -14.82 -4.54 0 0 0 0 0 -2.50 0 0 -0 0 0 -7.69 0.66 -3.90 -21.17 -7.01 -16.30 -3.21 0 0 -0 0 0 -1.92 0 0 0 0 0 8.73 -0 0 4.26 5.04 8.98 0 -46.66 0 0 3.78 0 0 -40.14 0 -1.57 42.75 -0.09 0 -8.88 14.22 0 0 0 -8.73 0 -0 -9.36 8.09 9.57 0 -46.66 0 0 3.96 0 0 -40.14 0 1.13 35.66 0.49 0 -8.88 14.22 0 0 0 
-0.33 106.82 3.58 2.95 -3.47 1.95 0.35 7.23 0 0.46 0.99 0.46 -0 16.55 -0 0.27 7.98 2.13 0 34.21 -0 0.01 0.57 0 0 6.29 0 0.83 -7.06 -5.42 4.06 26.61 -1.12 -14.58 -5.34 2.42 14.17 0 0 -59.93 53.05 19.04 26.12 0 0 0 0 -54.50 27.71 0 0 -43.60 -12.53 31.07 2.29 -0.46 1.83 57.19 34.31 -81.43 5.29 0 0 0 0 0 3.01 0 0 0 0 0 9.37 0.29 2.59 24.22 -1.62 -3.34 4.34 0 0 0 0 0 2.16 0 0 0 0 0 9.47 0.83 0.29 16.96 14.27 7.03 4.77 0 0 0 0 0 2.87 0 0 -0 0 0 8.65 1.01 -1.70 23.79 3.43 14.82 4.54 0 0 0 0 0 2.50 0 0 0 0 0 7.69 0.66 -3.90 21.17 -7.01 16.30 3.21 0 0 0 0 0 1.92 0 0 0 0 0 -4.06 26.61 -1.12 14.72 -5.34 -2.41 -14.17 0 0 51.28 -6.98 -1.14 -26.12 0 0 0 0 31.63 -27.71 0 0 23.33 50.04 -50.91 -2.29 -0.46 1.83 -57.19 34.31 81.43 -5.29 0 0 0 0 0 -3.01 0 0 0 0 0 -9.37 0.29 2.59 -24.22 -1.62 3.34 -4.34 0 0 0 0 0 -2.16 0 0 -0 0 0 -9.47 0.83 0.29 -16.96 14.27 -7.03 -4.77 0 0 0 0 0 -2.87 0 0 0 0 0 -8.65 1.01 -1.70 -23.79 3.43 -14.82 -4.54 0 0 0 0 0 -2.50 0 0 -0 0 0 -7.69 0.66 -3.90 -21.17 -7.01 -16.30 -3.21 0 0 -0 0 0 -1.92 0 0 0 0 0 8.73 -0 0 4.43 5.05 9.17 0 -46.66 0 0 3.80 0 0 -40.14 0 -1.59 42.76 -0.09 0 -8.88 14.22 0 0 0 -8.73 0 -0 -9.17 8.17 10.02 0 -46.66 0 0 3.89 0 0 -40.14 0 1.16 36.29 0.45 0 -8.88 14.22 0 0 0 
-0.54 106.80 3.58 2.85 -3.51 1.92 0.34 7.23 0 0.62 0.98 0.46 -0 16.55 -0 0.26 7.97 2.19 0 34.21 -0 0 0.57 0 0 6.29 0 0.87 -7.02 -5.43 4.06 26.61 -1.12 -14.61 -5.34 2.43 14.17 0 0 -59.93 53.25 19.03 26.12 0 0 0 0 -54.56 27.71 0 0 -43.51 -12.99 31.17 2.29 -0.46 1.83 57.19 34.31 -81.43 5.29 0 0 0 0 0 3.01 0 0 0 0 0 9.37 0.29 2.59 24.22 -1.62 -3.34 4.34 0 0 0 0 0 2.16 0 0 0 0 0 9.47 0.83 0.29 16.96 14.27 7.03 4.77 0 0 0 0 0 2.87 0 0 -0 0 0 8.65 1.01 -1.70 23.79 3.43 14.82 4.54 0 0 0 0 0 2.50 0 0 0 0 0 7.69 0.66 -3.90 21.17 -7.01 16.30 3.21 0 0 0 0 0 1.92 0 0 0 0 0 -4.06 26.61 -1.12 14.71 -5.35 -2.42 -14.17 0 0 51.24 -6.78 -1.20 -26.12 0 0 0 0 31.72 -27.71 0 0 22.71 49.89 -50.68 -2.29 -0.46 1.83 -57.19 34.31 81.43 -5.29 0 0 0 0 0 -3.01 0 0 0 0 0 -9.37 0.29 2.59 -24.22 -1.62 3.34 -4.34 0 0 0 0 0 -2.16 0 0 -0 0 0 -9.47 0.83 0.29 -16.96 14.27 -7.03 -4.77 0 0 0 0 0 -2.87 0 0 0 0 0 -8.65 1.01 -1.70 -23.79 3.43 -14.82 -4.54 0 0 0 0 0 -2.50 0 0 -0 0 0 -7.69 0.66 -3.90 -21.17 -7.01 -16.30 -3.21 0 0 -0 0 0 -1.92 0 0 0 0 0 8.73 -0 0 4.61 5.06 9.37 0 -46.66 0 0 3.82 0 0 -40.14 0 -1.61 42.77 -0.10 0 -8.88 14.22 0 0 0 -8.73 0 -0 -8.99 8.25 10.48 0 -46.66 0 0 3.82 0 0 -40.14 0 1.19 36.94 0.40 0 -8.88 14.22 0 0 0 
-0.75 106.77 3.58 2.76 -3.55 1.89 0.33 7.23 0 0.79 0.96 0.46 -0 16.55 -0 0.25 7.97 2.25 0 34.21 -0 0 0.56 0 0 6.29 0 0.94 -7.01 -5.44 4.06 26.61 -1.12 -14.64 -5.35 2.43 14.17 0 0 -59.87 53.28 19.02 26.12 0 0 0 0 -54.46 27.71 0 0 -43.91 -12.94 31.07 2.29 -0.46 1.83 57.19 34.31 -81.43 5.29 0 0 0 0 0 3.01 0 0 0 0 0 9.37 0.29 2.59 24.22 -1.62 -3.34 4.34 0 0 0 0 0 2.16 0 0 0 0 0 9.47 0.83 0.29 16.96 14.27 7.03 4.77 0 0 0 0 0 2.87 0 0 -0 0 0 8.65 1.01 -1.70 23.79 3.43 14.82 4.54 0 0 0 0 0 2.50 0 0 0 0 0 7.69 0.66 -3.90 21.17 -7.01 16.30 3.21 0 0 0 0 0 1.92 0 0 0 0 0 -4.06 26.61 -1.12 14.71 -5.35 -2.42 -14.17 0 0 51.25 -6.75 -1.30 -26.12 0 0 0 0 31.88 -27.71 0 0 22.27 49.92 -50.52 -2.29 -0.46 1.83 -57.19 34.31 81.43 -5.29 0 0 0 0 0 -3.01 0 0 0 0 0 -9.37 0.29 2.59 -24.22 -1.62 3.34 -4.34 0 0 0 0 0 -2.16 0 0 -0 0 0 -9.47 0.83 0.29 -16.96 14.27 -7.03 -4.77 0 0 0 0 0 -2.87 0 0 0 0 0 -8.65 1.01 -1.70 -23.79 3.43 -14.82 -4.54 0 0 0 0 0 -2.50 0 0 -0 0 0 -7.69 0.66 -3.90 -21.17 -7.01 -16.30 -3.21 0 0 -0 0 0 -1.92 0 0 0 0 0 8.73 -0 0 4.79 5.07 9.53 0 -46.66 0 0 3.85 0 0 -40.14 0 -1.62 42.73 -0.10 0 -8.88 14.22 0 0 0 -8.73 0 -0 -8.80 8.33 10.94 0 -46.66 0 0 3.76 0 0 -40.14 0 1.22 37.58 0.36 0 -8.88 14.22 0 0 0 
-0.97 106.74 3.58 2.66 -3.58 1.86 0.31 7.23 0 0.95 0.95 0.45 -0 16.55 -0 0.24 7.96 2.32 0 34.21 -0 0 0.56 -0 0 6.29 0 1.03 -7.02 -5.45 4.06 26.61 -1.12 -14.67 -5.35 2.42 14.17 0 0 -59.80 53.19 19.01 26.12 0 0 0 0 -54.27 27.71 0 0 -44.59 -12.60 30.89 2.29 -0.46 1.83 57.19 34.31 -81.43 5.29 0 0 0 0 0 3.01 0 0 0 0 0 9.37 0.29 2.59 24.22 -1.62 -3.34 4.34 0 0 0 0 0 2.16 0 0 0 0 0 9.47 0.83 0.29 16.96 14.27 7.03 4.77 0 0 0 0 0 2.87 0 0 -0 0 0 8.65 1.01 -1.70 23.79 3.43 14.82 4.54 0 0 0 0 0 2.50 0 0 0 0 0 7.69 0.66 -3.90 21.17 -7.01 16.30 3.21 0 0 0 0 0 1.92 0 0 0 0 0 -4.06 26.61 -1.12 14.71 -5.34 -2.40 -14.17 0 0 51.29 -6.81 -1.43 -26.12 0 0 0 0 32.07 -27.71 0 0 21.90 50.03 -50.39 -2.29 -0.46 1.83 -57.19 34.31 81.43 -5.29 0 0 0 0 0 -3.01 0 0 0 0 0 -9.37 0.29 2.59 -24.22 -1.62 3.34 -4.34 0 0 0 0 0 -2.16 0 0 -0 0 0 -9.47 0.83 0.29 -16.96 14.27 -7.03 -4.77 0 0 -0 0 0 -2.87 0 0 0 0 0 -8.65 1.01 -1.70 -23.79 3.43 -14.82 -4.54 0 0 0 0 0 -2.50 0 0 -0 0 0 -7.69 0.66 -3.90 -21.17 -7.01 -16.30 -3.21 0 0 -0 0 0 -1.92 0 0 0 0 0 8.73 -0 0 4.98 5.10 9.63 0 -46.66 0 0 3.86 0 0 -40.14 0 -1.63 42.61 -0.10 0 -8.88 14.22 0 0 0 -8.73 0 -0 -8.62 8.41 11.39 0 -46.66 0 0 3.69 0 0 -40.14 0 1.26 38.22 0.31 0 -8.88 14.22 0 0 0 
-1.18 106.72 3.58 2.56 -3.62 1.82 0.30 7.23 0 1.12 0.93 0.45 -0 16.55 -0 0.22 7.96 2.38 0 34.21 -0 0 0.56 -0 0 6.29 0 1.12 -7.03 -5.45 4.06 26.61 -1.12 -14.70 -5.35 2.42 14.17 0 0 -59.74 53.05 19.03 26.12 0 0 0 0 -54.14 27.71 0 0 -45.29 -12.35 30.93 2.29 -0.46 1.83 57.19 34.31 -81.43 5.29 0 0 0 0 0 3.01 0 0 0 0 0 9.37 0.29 2.59 24.22 -1.62 -3.34 4.34 0 0 0 0 0 2.16 0 0 0 0 0 9.47 0.83 0.29 16.96 14.27 7.03 4.77 0 0 0 0 0 2.87 0 0 -0 0 0 8.65 1.01 -1.70 23.79 3.43 14.82 4.54 0 0 0 0 0 2.50 0 0 0 0 0 7.69 0.66 -3.90 21.17 -7.01 16.30 3.21 0 0 0 0 0 1.92 0 0 0 0 0 -4.06 26.61 -1.12 14.73 -5.34 -2.39 -14.17 0 0 51.33 -6.95 -1.57 -26.12 0 0 0 0 32.27 -27.71 0 0 21.75 50.33 -50.37 -2.29 -0.46 1.83 -57.19 34.31 81.43 -5.29 0 0 0 0 0 -3.01 0 0 0 0 0 -9.37 0.29 2.59 -24.22 -1.62 3.34 -4.34 0 0 0 0 0 -2.16 0 0 -0 0 0 -9.47 0.83 0.29 -16.96 14.27 -7.03 -4.77 0 0 0 0 0 -2.87 0 0 0 0 0 -8.65 1.01 -1.70 -23.79 3.43 -14.82 -4.54 0 0 0 0 0 -2.50 0 0 -0 0 0 -7.69 0.66 -3.90 -21.17 -7.01 -16.30 -3.21 0 0 -0 0 0 -1.92 0 0 0 0 0 8.73 -0 0 5.18 5.14 9.64 0 -46.66 0 0 3.87 0 0 -40.14 0 -1.63 42.34 -0.10 0 -8.88 14.22 0 0 0 -8.73 0 -0 -8.43 8.50 11.83 0 -46.66 0 0 3.62 0 0 -40.14 0 1.31 38.86 0.27 0 -8.88 14.22 0 0 0 
-1.40 106.69 3.58 2.47 -3.66 1.78 0.29 7.23 0 1.28 0.92 0.44 -0 16.55 -0 0.21 7.95 2.44 0 34.21 -0 0 0.56 -0 0 6.29 0 1.22 -7.04 -5.45 4.06 26.61 -1.12 -14.75 -5.36 2.44 14.17 0 0 -59.74 52.89 19.13 26.12 0 0 0 0 -54.15 27.71 0 0 -45.97 -12.44 31.44 2.29 -0.46 1.83 57.19 34.31 -81.43 5.29 0 0 0 0 0 3.01 0 0 0 0 0 9.37 0.29 2.59 24.22 -1.62 -3.34 4.34 0 0 0 0 0 2.16 0 0 0 0 0 9.47 0.83 0.29 16.96 14.27 7.03 4.77 0 0 0 0 0 2.87 0 0 -0 0 0 8.65 1.01 -1.70 23.79 3.43 14.82 4.54 0 0 0 0 0 2.50 0 0 0 0 0 7.69 0.66 -3.90 21.17 -7.01 16.30 3.21 0 0 0 0 0 1.92 0 0 0 0 0 -4.06 26.61 -1.12 14.76 -5.34 -2.39 -14.17 0 0 51.34 -7.18 -1.68 -26.12 0 0 0 0 32.46 -27.71 0 0 21.95 50.92 -50.56 -2.29 -0.46 1.83 -57.19 34.31 81.43 -5.29 0 0 0 0 0 -3.01 0 0 0 0 0 -9.37 0.29 2.59 -24.22 -1.62 3.34 -4.34 0 0 0 0 0 -2.16 0 0 -0 0 0 -9.47 0.83 0.29 -16.96 14.27 -7.03 -4.77 0 0 0 0 0 -2.87 0 0 0 0 0 -8.65 1.01 -1.70 -23.79 3.43 -14.82 -4.54 0 0 0 0 0 -2.50 0 0 -0 0 0 -7.69 0.66 -3.90 -21.17 -7.01 -16.30 -3.21 0 0 -0 0 0 -1.92 0 0 0 0 0 8.73 -0 0 5.41 5.19 9.52 0 -46.66 0 0 3.87 0 0 -40.14 0 -1.62 41.87 -0.11 0 -8.88 14.22 0 0 0 -8.73 0 -0 -8.24 8.58 12.24 0 -46.66 0 0 3.56 0 0 -40.14 0 1.36 39.48 0.22 0 -8.88 14.22 0 0 0 
-1.62 106.66 3.58 2.37 -3.69 1.75 0.28 7.23 0 1.45 0.90 0.44 -0 16.55 -0 0.20 7.95 2.50 0 34.21 -0 0 0.56 -0 0 6.29 0 1.32 -7.06 -5.45 4.06 26.61 -1.12 -14.81 -5.37 2.47 14.17 0 0 -59.76 52.67 19.26 26.12 0 0 0 0 -54.21 27.71 0 0 -46.68 -12.64 32.17 2.29 -0.46 1.83 57.19 34.31 -81.43 5.29 0 0 0 0 0 3.01 0 0 0 0 0 9.37 0.29 2.59 24.22 -1.62 -3.34 4.34 0 0 0 0 0 2.16 0 0 0 0 0 9.47 0.83 0.29 16.96 14.27 7.03 4.77 0 0 0 0 0 2.87 0 0 -0 0 0 8.65 1.01 -1.70 23.79 3.43 14.82 4.54 0 0 0 0 0 2.50 0 0 0 0 0 7.69 0.66 -3.90 21.17 -7.01 16.30 3.21 0 0 0 0 0 1.92 0 0 0 0 0 -4.06 26.61 -1.12 14.82 -5.36 -2.44 -14.17 0 0 51.28 -7.70 -1.77 -26.12 0 0 0 0 32.61 -27.71 0 0 23.11 52.34 -51.34 -2.29 -0.46 1.83 -57.19 34.31 81.43 -5.29 0 0 0 0 0 -3.01 0 0 0 0 0 -9.37 0.29 2.59 -24.22 -1.62 3.34 -4.34 0 0 0 0 0 -2.16 0 0 -0 0 0 -9.47 0.83 0.29 -16.96 14.27 -7.03 -4.77 0 0 0 0 0 -2.87 0 0 0 0 0 -8.65 1.01 -1.70 -23.79 3.43 -14.82 -4.54 0 0 0 0 0 -2.50 0 0 -0 0 0 -7.69 0.66 -3.90 -21.17 -7.01 -16.30 -3.21 0 0 -0 0 0 -1.92 0 0 0 0 0 8.73 -0 0 5.66 5.27 9.30 0 -46.66 0 0 3.86 0 0 -40.14 0 -1.61 41.22 -0.11 0 -8.88 14.22 0 0 0 -8.73 0 -0 -8.04 8.66 12.61 0 -46.66 0 0 3.49 0 0 -40.14 0 1.41 40.09 0.18 0 -8.88 14.22 0 0 0 
